<svg width="26" height="26" viewBox="0 0 26 26" fill="none" xmlns="http://www.w3.org/2000/svg">
<path d="M21.6649 7.66797C21.427 5.5013 20.484 3.68164 18.8357 2.20898C17.1875 0.736328 15.2589 0 13.0499 0C10.841 0 8.91236 0.736328 7.26412 2.20898C5.61589 3.68164 4.67283 5.5013 4.43494 7.66797C3.14354 7.90495 2.08153 8.46354 1.24892 9.34375C0.416307 10.224 0 11.2565 0 12.4414C0 13.7956 0.526755 14.9466 1.58027 15.8945C2.63378 16.8424 3.92518 17.3164 5.45447 17.3164H6.52497V8.68359C6.52497 6.88932 7.16217 5.35742 8.43658 4.08789C9.71099 2.81836 11.2488 2.18359 13.0499 2.18359C14.8511 2.18359 16.3889 2.81836 17.6633 4.08789C18.9377 5.35742 19.5749 6.88932 19.5749 8.68359V16.25C19.5749 19.1615 18.4194 20.9388 16.1085 21.582C15.4628 20.194 14.4433 19.5 13.0499 19.5C12.1324 19.5 11.3592 19.8132 10.7305 20.4395C10.1018 21.0658 9.78745 21.8359 9.78745 22.75C9.78745 23.6641 10.1018 24.4342 10.7305 25.0605C11.3592 25.6868 12.1324 26 13.0499 26C13.7636 26 14.4093 25.7884 14.987 25.3652C15.5648 24.9421 15.9386 24.3919 16.1085 23.7148C17.5698 23.4102 18.7593 22.8008 19.6769 21.8867C20.8663 20.7018 21.529 19.1445 21.6649 17.2148C22.9223 17.0117 23.9589 16.4616 24.7745 15.5645C25.5901 14.6673 25.9979 13.6263 25.9979 12.4414C26.0319 11.2565 25.6496 10.224 24.851 9.34375C24.0523 8.46354 22.9903 7.90495 21.6649 7.66797Z" fill="white"/>
</svg>
