<svg width="11" height="11" viewBox="0 0 11 11" fill="none" xmlns="http://www.w3.org/2000/svg">
<path d="M5.84131 0.820862H5.18546V1.80464H5.84131V0.820862Z" fill="#2A477A"/>
<path d="M1.90625 5.08392H0.92247V5.73978H1.90625V5.08392Z" fill="#2A477A"/>
<path d="M5.84131 9.01904H5.18546V10.0028H5.84131V9.01904Z" fill="#2A477A"/>
<path d="M10.1045 5.08392H9.12071V5.73978H10.1045V5.08392Z" fill="#2A477A"/>
<path d="M5.5133 2.78842C6.03217 2.78842 6.53938 2.94228 6.97079 3.23055C7.40221 3.51881 7.73846 3.92853 7.93702 4.4079C8.13558 4.88726 8.18753 5.41474 8.08631 5.92364C7.98508 6.43253 7.73523 6.89998 7.36834 7.26687C7.00145 7.63376 6.534 7.88361 6.02511 7.98484C5.51621 8.08606 4.98873 8.03411 4.50937 7.83555C4.03 7.63699 3.62028 7.30074 3.33202 6.86932C3.04375 6.43791 2.88989 5.9307 2.88989 5.41183C2.88989 4.71606 3.16629 4.04879 3.65827 3.5568C4.15026 3.06482 4.81753 2.78842 5.5133 2.78842ZM5.5133 7.37939C6.03513 7.37939 6.53559 7.1721 6.90458 6.80311C7.27357 6.43412 7.48086 5.93366 7.48086 5.41183C7.48086 4.89001 7.27357 4.38955 6.90458 4.02056C6.53559 3.65157 6.03513 3.44427 5.5133 3.44427V7.37939Z" fill="#2A477A"/>
</svg>
