<svg width="10" height="8" viewBox="0 0 10 8" fill="none" xmlns="http://www.w3.org/2000/svg">
<path d="M9.80796 3.88337C9.51426 3.37398 7.89888 0.817821 5.15457 0.900426C2.61677 0.964674 1.14824 3.195 0.748983 3.88337C0.708705 3.95314 0.6875 4.03227 0.6875 4.11283C0.6875 4.19339 0.708705 4.27252 0.748983 4.34229C1.0381 4.8425 2.58464 7.32523 5.28765 7.32523H5.40238C7.94018 7.26099 9.4133 5.03066 9.80796 4.34229C9.84824 4.27252 9.86945 4.19339 9.86945 4.11283C9.86945 4.03227 9.84824 3.95314 9.80796 3.88337V3.88337ZM5.37943 6.4074C3.40151 6.4533 2.11196 4.7599 1.70811 4.11283C2.16703 3.37398 3.3648 1.86415 5.20046 1.81826C7.1692 1.76777 8.46334 3.46576 8.87178 4.11283C8.39909 4.85168 7.21509 6.36151 5.37943 6.4074V6.4074Z" fill="#2A477A"/>
<path d="M5.27857 2.50662C4.96089 2.50662 4.65035 2.60082 4.38621 2.77732C4.12207 2.95381 3.9162 3.20466 3.79463 3.49816C3.67306 3.79165 3.64125 4.11461 3.70323 4.42618C3.7652 4.73775 3.91818 5.02395 4.14281 5.24858C4.36744 5.47321 4.65364 5.62619 4.96521 5.68816C5.27678 5.75014 5.59974 5.71833 5.89323 5.59676C6.18673 5.47519 6.43758 5.26932 6.61407 5.00518C6.79057 4.74104 6.88477 4.4305 6.88477 4.11282C6.88477 3.68683 6.71554 3.27829 6.41432 2.97707C6.1131 2.67585 5.70456 2.50662 5.27857 2.50662V2.50662ZM5.27857 4.8012C5.14242 4.8012 5.00933 4.76082 4.89613 4.68519C4.78292 4.60955 4.69469 4.50204 4.64259 4.37625C4.59049 4.25047 4.57686 4.11206 4.60342 3.97853C4.62998 3.845 4.69554 3.72234 4.79181 3.62607C4.88808 3.5298 5.01074 3.46424 5.14427 3.43768C5.2778 3.41112 5.41621 3.42475 5.54199 3.47685C5.66778 3.52895 5.77529 3.61718 5.85093 3.73039C5.92657 3.84359 5.96694 3.97668 5.96694 4.11282C5.96694 4.29539 5.89441 4.47048 5.76532 4.59958C5.63622 4.72867 5.46113 4.8012 5.27857 4.8012Z" fill="#2A477A"/>
</svg>
