<svg width="13" height="10" viewBox="0 0 13 10" fill="none" xmlns="http://www.w3.org/2000/svg">
<path d="M7.07612 6.46473C6.76705 6.52661 6.49382 6.67548 6.22947 6.84181C6.09133 6.92849 5.95256 7.01457 5.79481 7.06204C5.48727 7.15455 5.26305 7.05745 5.16656 6.75175C5.02076 6.28922 4.99227 5.80677 5.17974 5.35741C5.66034 4.20567 6.02547 3.0233 6.23621 1.79345C6.27787 1.55055 6.24724 1.32387 6.07417 1.1358C5.8959 0.942208 5.63247 0.968551 5.49003 1.19063C5.42295 1.29508 5.39171 1.41362 5.36352 1.53278C5.2701 1.92915 5.20026 2.33042 5.08784 2.72281C4.91937 3.31154 4.52729 3.78235 4.26294 4.31993C4.2366 4.37353 4.19586 4.37445 4.14011 4.3527C4.22251 4.19832 4.30399 4.04547 4.40599 3.85433C4.19188 3.97839 4.01942 4.07855 3.83625 4.18484C3.83625 4.1487 3.8341 4.13338 3.83655 4.11868C3.96337 3.36515 4.09018 2.61192 4.21791 1.85839C4.25712 1.62651 4.28408 1.39341 4.25957 1.15816C4.24027 0.973452 4.1444 0.864405 3.99859 0.845107C3.81603 0.820908 3.72536 0.875126 3.6448 1.06198C3.6206 1.11773 3.60345 1.17684 3.58691 1.23535C3.34951 2.07281 3.11488 2.91088 2.82143 3.73119C2.75496 3.91651 2.69247 4.1052 2.55953 4.29634C2.2958 3.67391 2.04156 3.07997 1.79252 2.48358C1.70277 2.26885 1.57351 2.09058 1.36399 1.98521C1.15508 1.88014 0.966089 2.00389 0.971297 2.23822C0.974053 2.36565 0.999477 2.49032 1.03593 2.61345C1.21145 3.20893 1.39003 3.80379 1.55513 4.40232C1.68225 4.86333 1.83388 5.32218 1.87002 5.80126C1.94108 6.74225 1.97968 7.68539 1.95671 8.62976C1.95181 8.82855 2.01828 8.99886 2.15642 9.14191C2.28324 9.27332 2.43946 9.35725 2.60824 9.41974C3.06832 9.59005 3.54617 9.60169 4.02677 9.56554C4.17779 9.55421 4.33217 9.53644 4.46848 9.4568C4.63113 9.36154 4.7947 9.26781 4.9549 9.16887C5.48758 8.83958 6.03619 8.53327 6.47942 8.07686C6.82495 7.72123 7.20508 7.4045 7.6183 7.12913C7.69549 7.07767 7.76502 7.01855 7.82108 6.94534C7.90409 6.8366 7.90439 6.73521 7.8027 6.6329C7.5941 6.42399 7.34047 6.41174 7.07612 6.46473Z" fill="#2A477A"/>
<path d="M12.5992 4.44429C12.5247 4.32727 12.4013 4.30032 12.2751 4.32697C11.9596 4.39374 11.7206 4.57386 11.5543 4.84862C11.5142 4.91448 11.5004 4.99106 11.4983 5.06855C11.497 5.10991 11.5261 5.16994 11.4459 5.16443C11.3806 5.16014 11.3834 5.10378 11.3843 5.06028C11.3886 4.8817 11.4685 4.7313 11.5972 4.61797C11.6894 4.53649 11.7084 4.45164 11.702 4.33769C11.6352 3.15624 11.573 1.97448 11.5081 0.792724C11.4992 0.630072 11.501 0.46405 11.4673 0.305992C11.4021 0.00396749 11.1561 -0.0625025 10.9356 0.152223C10.7956 0.288533 10.7156 0.455473 10.6905 0.649676C10.6675 0.827338 10.6639 1.00561 10.6685 1.18419C10.6875 1.9218 10.6185 2.65082 10.4589 3.37127C10.4219 3.53791 10.4023 3.54526 10.2534 3.45336C10.2317 3.43988 10.2068 3.42916 10.19 3.41109C10.0004 3.20402 9.7581 3.21107 9.50998 3.24139C8.87254 3.31858 8.23541 3.39853 7.59736 3.47113C7.44267 3.48859 7.33454 3.54893 7.29779 3.70454C7.26287 3.8531 7.3229 3.97746 7.46687 4.06476C7.64055 4.16983 7.83261 4.19495 8.02773 4.16677C8.42104 4.10979 8.81251 4.0421 9.20489 3.98022C9.31425 3.96307 9.42728 3.93672 9.52959 4.05496C9.11116 4.12082 8.71387 4.18423 8.31597 4.24457C8.24797 4.25498 8.19743 4.25835 8.22714 4.35331C8.32271 4.6584 8.31934 4.97482 8.33833 5.29032C8.38306 6.04171 8.6278 6.71468 9.18161 7.25012C9.79026 7.83885 10.557 7.88204 11.2321 7.36743C11.3659 7.26543 11.494 7.15516 11.6343 7.06265C11.7721 6.97168 11.8622 6.84823 11.9397 6.70825C12.0649 6.48127 12.0705 6.22979 12.0992 5.98259C12.1507 5.5415 12.2607 5.12032 12.5397 4.76255C12.6175 4.66269 12.6742 4.56252 12.5992 4.44429Z" fill="#2A477A"/>
<path d="M8.57477 3.17737C8.59713 3.26896 8.6587 3.23496 8.70587 3.22944C8.92826 3.2034 9.14941 3.16573 9.37241 3.14429C9.48728 3.13326 9.50933 3.11029 9.44991 3.00093C9.21405 2.56658 9.01249 2.11722 8.87588 1.64029C8.81002 1.40994 8.75703 1.17775 8.72762 0.939443C8.69607 0.683058 8.56191 0.524082 8.38118 0.519487C8.23078 0.515505 8.10887 0.621489 8.05833 0.79425C8.00472 0.977426 8.03566 1.16029 8.06874 1.33979C8.18422 1.96682 8.42437 2.55984 8.57477 3.17737Z" fill="#2A477A"/>
<path d="M7.87817 3.2457C7.90237 3.32136 7.94526 3.33392 8.01387 3.3232C8.17438 3.29838 8.3355 3.27725 8.49846 3.25427C8.49693 3.23651 8.49938 3.22027 8.49417 3.2071C8.25525 2.62449 8.01724 2.04127 7.77525 1.45989C7.73053 1.35268 7.62363 1.33308 7.52285 1.40567C7.44045 1.4651 7.39634 1.54811 7.3798 1.64858C7.3409 1.88505 7.41472 2.10131 7.49988 2.31451C7.62393 2.62572 7.77556 2.92591 7.87817 3.2457Z" fill="#2A477A"/>
<path d="M5.88327 3.75141C5.80945 3.9934 5.73134 4.23385 5.64404 4.50954C5.96812 4.42438 6.25851 4.35179 6.54614 4.27031C6.66437 4.23692 6.74738 4.15544 6.78751 4.03444C6.8745 3.77132 6.7336 3.58355 6.46466 3.60959C6.30782 3.6246 6.1516 3.64788 5.99508 3.66656C5.94055 3.6733 5.90165 3.69137 5.88327 3.75141Z" fill="#2A477A"/>
</svg>
