<svg width="15" height="16" viewBox="0 0 15 16" fill="none" xmlns="http://www.w3.org/2000/svg">
<path d="M9.81927 7.83848C9.81927 8.44728 9.57742 9.03114 9.14693 9.46163C8.71645 9.89212 8.13258 10.134 7.52378 10.134C6.91498 10.134 6.33111 9.89212 5.90063 9.46163C5.47014 9.03114 5.22829 8.44728 5.22829 7.83848C5.22829 7.70763 5.24207 7.57985 5.26579 7.4559H4.46313V10.5142C4.46313 10.727 4.63529 10.8991 4.84801 10.8991H10.2003C10.3023 10.8989 10.4 10.8583 10.472 10.7861C10.544 10.714 10.5844 10.6162 10.5844 10.5142V7.4559H9.78177C9.80549 7.57985 9.81927 7.70763 9.81927 7.83848ZM7.52378 9.3688C7.72479 9.36875 7.92383 9.32911 8.10953 9.25214C8.29522 9.17517 8.46394 9.06237 8.60604 8.9202C8.74815 8.77802 8.86085 8.60925 8.93773 8.42352C9.01461 8.23778 9.05415 8.03873 9.0541 7.83771C9.05405 7.6367 9.01441 7.43766 8.93744 7.25196C8.86047 7.06627 8.74767 6.89755 8.6055 6.75545C8.46333 6.61335 8.29455 6.50064 8.10882 6.42376C7.92309 6.34688 7.72403 6.30734 7.52301 6.30739C7.11705 6.30749 6.72775 6.46886 6.44075 6.75599C6.15376 7.04313 5.99259 7.43251 5.99269 7.83848C5.99279 8.24445 6.15416 8.63375 6.44129 8.92074C6.72843 9.20773 7.11781 9.3689 7.52378 9.3688ZM9.36017 6.23164H10.2776C10.3385 6.23164 10.397 6.20748 10.4402 6.16445C10.4834 6.12142 10.5077 6.06304 10.5079 6.00209V5.08466C10.5079 5.02357 10.4836 4.96499 10.4405 4.9218C10.3973 4.87861 10.3387 4.85434 10.2776 4.85434H9.36017C9.29909 4.85434 9.2405 4.87861 9.19731 4.9218C9.15412 4.96499 9.12986 5.02357 9.12986 5.08466V6.00209C9.13062 6.12834 9.23392 6.23164 9.36017 6.23164ZM7.52378 0.49292C5.57562 0.49292 3.70725 1.26682 2.32969 2.64438C0.952127 4.02194 0.178223 5.89031 0.178223 7.83848C0.178223 9.78664 0.952127 11.655 2.32969 13.0326C3.70725 14.4101 5.57562 15.184 7.52378 15.184C8.48841 15.184 9.4436 14.994 10.3348 14.6249C11.226 14.2557 12.0358 13.7147 12.7179 13.0326C13.4 12.3505 13.941 11.5407 14.3102 10.6495C14.6793 9.7583 14.8693 8.80311 14.8693 7.83848C14.8693 6.87384 14.6793 5.91866 14.3102 5.02745C13.941 4.13625 13.4 3.32648 12.7179 2.64438C12.0358 1.96229 11.226 1.42122 10.3348 1.05207C9.4436 0.682918 8.48841 0.49292 7.52378 0.49292ZM11.3496 10.8142C11.3496 11.2817 10.967 11.6643 10.4995 11.6643H4.54806C4.08055 11.6643 3.69797 11.2817 3.69797 10.8142V4.86276C3.69797 4.39525 4.08055 4.01267 4.54806 4.01267H10.4995C10.967 4.01267 11.3496 4.39525 11.3496 4.86276V10.8142Z" fill="#395185"/>
</svg>
