<svg width="16" height="16" viewBox="0 0 16 16" fill="none" xmlns="http://www.w3.org/2000/svg">
<path d="M7.99497 0.49292C3.93808 0.49292 0.649414 3.78159 0.649414 7.83848C0.649414 11.8954 3.93808 15.184 7.99497 15.184C12.0519 15.184 15.3405 11.8954 15.3405 7.83848C15.3405 3.78159 12.0519 0.49292 7.99497 0.49292ZM6.19684 10.8831H4.70936V6.0962H6.19684V10.8831ZM5.44392 5.50856C4.97411 5.50856 4.67034 5.17571 4.67034 4.76405C4.67034 4.34398 4.98329 4.02108 5.46305 4.02108C5.94281 4.02108 6.23663 4.34398 6.24581 4.76405C6.24581 5.17571 5.94281 5.50856 5.44392 5.50856ZM11.6295 10.8831H10.142V8.23024C10.142 7.61275 9.92624 7.19345 9.38833 7.19345C8.97744 7.19345 8.73335 7.47732 8.62546 7.75048C8.58568 7.84766 8.57573 7.98539 8.57573 8.12235V10.8823H7.08749V7.6227C7.08749 7.02511 7.06836 6.52546 7.04847 6.09544H8.34082L8.40892 6.76036H8.43877C8.63465 6.44818 9.1144 5.98755 9.91706 5.98755C10.8957 5.98755 11.6295 6.64329 11.6295 8.05272V10.8831Z" fill="#395185"/>
</svg>
