<svg width="135" height="39" viewBox="0 0 135 39" fill="none" xmlns="http://www.w3.org/2000/svg">
<path d="M38.7395 19.8012C38.7395 30.3354 30.2001 38.8748 19.6656 38.8748C9.13107 38.8748 0.591309 30.3354 0.591309 19.8012C0.591309 9.2673 9.13107 0.727539 19.6656 0.727539C30.2001 0.727539 38.7395 9.2673 38.7395 19.8012Z" fill="#2A477A"/>
<path d="M30.9612 18.2145L17.5442 26.9577C17.5442 26.9577 15.2826 28.3145 16.6397 30.5748C17.9965 32.8367 19.3532 34.4948 19.3532 34.4948L28.0964 29.068C28.097 29.068 35.3334 24.998 30.9612 18.2145Z" fill="white"/>
<path d="M7.8115 21.6748L21.2285 12.932C21.2285 12.932 23.4897 11.5755 22.133 9.31392C20.7762 7.05265 19.4194 5.39459 19.4194 5.39459L10.6757 10.8213C10.6757 10.8213 3.43961 14.8919 7.8115 21.6748Z" fill="white"/>
<path d="M8.34863 22.5861L21.0117 14.7475C21.0117 14.7475 24.7804 12.9388 27.7955 14.7475L30.8107 16.5565L16.9415 25.45C16.9415 25.45 14.077 26.5052 11.8157 25.45C9.55474 24.3948 8.34863 22.5861 8.34863 22.5861Z" fill="white"/>
<path d="M45.0864 16.0867L46.718 15.9842C46.7533 16.2505 46.8256 16.453 46.9339 16.592C47.111 16.818 47.3629 16.9305 47.6911 16.9305C47.936 16.9305 48.1247 16.8732 48.2571 16.7579C48.3894 16.6426 48.4559 16.5088 48.4559 16.3572C48.4559 16.2123 48.3925 16.0833 48.2665 15.9693C48.1403 15.8552 47.8472 15.7476 47.3883 15.646C46.6359 15.4765 46.0998 15.2505 45.7793 14.9696C45.4563 14.6882 45.295 14.3295 45.295 13.8934C45.295 13.6071 45.3774 13.3369 45.5429 13.0822C45.7082 12.8279 45.9568 12.6272 46.2886 12.4815C46.6207 12.3354 47.0754 12.2628 47.6533 12.2628C48.3626 12.2628 48.9033 12.3952 49.2756 12.6602C49.648 12.9249 49.8697 13.346 49.9398 13.9239L48.3236 14.0191C48.2803 13.7687 48.19 13.5857 48.0528 13.4717C47.9152 13.3579 47.7252 13.3006 47.4831 13.3006C47.284 13.3006 47.1336 13.343 47.0327 13.4278C46.9317 13.5125 46.8811 13.6159 46.8811 13.7379C46.8811 13.8266 46.9229 13.9065 47.0061 13.977C47.087 14.0511 47.2788 14.1194 47.5816 14.1822C48.3312 14.3448 48.8682 14.5085 49.1924 14.6747C49.5166 14.8406 49.7526 15.0465 49.9002 15.2926C50.0478 15.5381 50.1219 15.8131 50.1219 16.1172C50.1219 16.4746 50.0234 16.804 49.8264 17.1056C49.6297 17.4072 49.3546 17.6362 49.0012 17.7917C48.648 17.9479 48.2025 18.0259 47.6645 18.0259C46.721 18.0259 46.0672 17.8433 45.7037 17.4782C45.3398 17.1129 45.1343 16.6493 45.0864 16.0867Z" fill="#2A477A"/>
<path d="M54.5964 12.3572H56.3073V15.6776C56.3073 16.007 56.2563 16.318 56.1539 16.6105C56.052 16.9027 55.8913 17.1585 55.6735 17.3778C55.4549 17.597 55.2256 17.7507 54.9862 17.8398C54.6532 17.9636 54.2534 18.0255 53.7862 18.0255C53.516 18.0255 53.2214 18.0066 52.9024 17.9688C52.5831 17.9304 52.3163 17.8553 52.1016 17.7422C51.8872 17.6297 51.6911 17.4696 51.513 17.2619C51.3349 17.0545 51.2132 16.8401 51.148 16.62C51.0415 16.2656 50.9888 15.9515 50.9888 15.6779V12.3572H52.6999V15.7563C52.6999 16.0604 52.7835 16.2979 52.9512 16.4687C53.1192 16.6398 53.3519 16.7249 53.6501 16.7249C53.945 16.7249 54.1771 16.6407 54.3445 16.4724C54.5126 16.3037 54.5967 16.0655 54.5967 15.756V12.3572H54.5964Z" fill="#2A477A"/>
<path d="M57.4351 12.3572H60.2855C60.9067 12.3572 61.3718 12.5054 61.6807 12.8022C61.9896 13.0989 62.1445 13.5207 62.1445 14.0678C62.1445 14.6307 61.9759 15.0705 61.6392 15.387C61.3022 15.7045 60.7878 15.8627 60.0961 15.8627H59.1578V17.9304H57.4354V12.3572H57.4351ZM59.1578 14.7332H59.578C59.9086 14.7332 60.1403 14.6758 60.2745 14.56C60.4081 14.445 60.4752 14.2974 60.4752 14.1172C60.4752 13.9424 60.4169 13.7942 60.3011 13.6725C60.1852 13.5508 59.9668 13.4899 59.6463 13.4899H59.1578V14.7332Z" fill="#2A477A"/>
<path d="M63.0381 12.3572H67.6335V13.5475H64.7568V14.4331H67.4255V15.5694H64.7568V16.6681H67.7162V17.9301H63.0381V12.3572Z" fill="#2A477A"/>
<path d="M68.6636 17.9301V12.3572H71.522C72.0517 12.3572 72.4573 12.403 72.7369 12.4945C73.0172 12.5857 73.2428 12.7546 73.4148 13.0019C73.5868 13.2492 73.6719 13.5499 73.6719 13.9049C73.6719 14.2141 73.607 14.4804 73.4755 14.7048C73.3441 14.9296 73.1635 15.111 72.9339 15.2504C72.7875 15.3394 72.5866 15.4126 72.3313 15.4712C72.5356 15.5395 72.6842 15.6081 72.7775 15.6764C72.8412 15.7222 72.9327 15.8194 73.0519 15.9692C73.1718 16.1189 73.252 16.2348 73.2922 16.3156L74.1229 17.9304H72.1852L71.2682 16.2278C71.1523 16.0073 71.049 15.8643 70.9581 15.7981C70.8343 15.7121 70.6943 15.6688 70.5376 15.6688H70.386V17.9307H68.6636V17.9301ZM70.386 14.6152H71.1093C71.1877 14.6152 71.339 14.5898 71.5631 14.5389C71.6766 14.5167 71.7696 14.4581 71.8416 14.3642C71.9132 14.2706 71.9495 14.1632 71.9495 14.0415C71.9495 13.8616 71.8925 13.7231 71.779 13.6271C71.6656 13.531 71.4521 13.4828 71.1392 13.4828H70.3854V14.6152H70.386Z" fill="#2A477A"/>
<path d="M76.4583 12.3572H74.7393V17.9301H76.4583V12.3572Z" fill="#2A477A"/>
<path d="M77.7002 12.3572H79.3018L81.3914 15.4407V12.3572H83.008V17.9301H81.3914L79.3128 14.8704V17.9301H77.7002V12.3572Z" fill="#2A477A"/>
<path d="M83.7568 12.3572H88.9695V13.7332H87.2209V17.9301H85.5052V13.7332H83.7568V12.3572Z" fill="#2A477A"/>
<path d="M89.7422 12.3572H94.3379V13.5475H91.4615V14.4331H94.1299V15.5694H91.4615V16.6681H94.4212V17.9301H89.7422V12.3572Z" fill="#2A477A"/>
<path d="M95.3555 12.3572H96.9571L99.0473 15.4407V12.3572H100.664V17.9301H99.0473L96.9687 14.8704V17.9301H95.3555V12.3572Z" fill="#2A477A"/>
<path d="M101.826 12.3572H104.374C104.876 12.3572 105.282 12.4262 105.591 12.5628C105.9 12.6994 106.155 12.8958 106.357 13.152C106.559 13.4081 106.705 13.7058 106.796 14.0455C106.887 14.3852 106.933 14.7451 106.933 15.125C106.933 15.7206 106.865 16.1826 106.729 16.5108C106.595 16.8386 106.407 17.114 106.168 17.3357C105.928 17.5577 105.67 17.705 105.395 17.7785C105.02 17.88 104.679 17.9307 104.373 17.9307H101.826V12.3572H101.826ZM103.54 13.6195V16.6645H103.961C104.319 16.6645 104.574 16.6245 104.726 16.5446C104.877 16.4647 104.996 16.3257 105.081 16.1265C105.167 15.9274 105.21 15.6047 105.21 15.1592C105.21 14.5685 105.115 14.1644 104.923 13.9467C104.731 13.7286 104.413 13.6195 103.969 13.6195H103.54Z" fill="#2A477A"/>
<path d="M107.83 12.3572H112.425V13.5475H109.549V14.4331H112.217V15.5694H109.549V16.6681H112.509V17.9301H107.83V12.3572Z" fill="#2A477A"/>
<path d="M113.443 12.3572H115.045L117.135 15.4407V12.3572H118.752V17.9301H117.135L115.056 14.8704V17.9301H113.443V12.3572Z" fill="#2A477A"/>
<path d="M123.585 15.6493L125.089 16.1055C124.988 16.5285 124.829 16.8823 124.612 17.1665C124.395 17.4498 124.125 17.6642 123.804 17.8084C123.482 17.9536 123.072 18.0256 122.576 18.0256C121.972 18.0256 121.48 17.9368 121.097 17.7612C120.715 17.5855 120.385 17.2754 120.107 16.8326C119.829 16.3895 119.69 15.8222 119.69 15.1306C119.69 14.209 119.935 13.5003 120.423 13.0047C120.912 12.5098 121.603 12.2621 122.495 12.2621C123.195 12.2621 123.745 12.404 124.144 12.6879C124.545 12.9718 124.841 13.4079 125.035 13.9958L123.522 14.3337C123.469 14.1642 123.413 14.0401 123.355 13.9614C123.259 13.8296 123.142 13.7281 123.004 13.6573C122.864 13.5863 122.709 13.5506 122.538 13.5506C122.149 13.5506 121.851 13.708 121.645 14.0215C121.487 14.2547 121.409 14.6204 121.409 15.119C121.409 15.7365 121.503 16.1604 121.69 16.3895C121.876 16.6182 122.139 16.7328 122.477 16.7328C122.805 16.7328 123.053 16.6404 123.221 16.4553C123.389 16.2705 123.51 16.0016 123.585 15.6493Z" fill="#2A477A"/>
<path d="M127.708 12.3572H125.989V17.9301H127.708V12.3572Z" fill="#2A477A"/>
<path d="M132.351 17.01H130.404L130.133 17.9301H128.382L130.468 12.3572H132.339L134.424 17.9301H132.628L132.351 17.01ZM131.995 15.8051L131.382 13.8018L130.777 15.8051H131.995Z" fill="#2A477A"/>
<path d="M45.4075 21.6991H47.9552C48.4571 21.6991 48.863 21.768 49.1723 21.9046C49.4815 22.041 49.737 22.2377 49.9389 22.4941C50.1408 22.75 50.2869 23.0476 50.3781 23.387C50.4686 23.7268 50.5144 24.0866 50.5144 24.4666C50.5144 25.0628 50.4467 25.5245 50.3116 25.8526C50.1768 26.1805 49.9889 26.4561 49.7492 26.6775C49.5095 26.8999 49.2525 27.0465 48.9771 27.1197C48.6011 27.2216 48.2601 27.2722 47.9549 27.2722H45.4072V21.6991H45.4075ZM47.1226 22.9613V26.0066H47.5425C47.9009 26.0066 48.1558 25.9664 48.3071 25.8868C48.4589 25.8063 48.5773 25.6675 48.6633 25.4687C48.7493 25.2692 48.7917 24.9472 48.7917 24.5008C48.7917 23.9104 48.6959 23.5066 48.5041 23.2882C48.3126 23.0702 47.9945 22.961 47.5505 22.961H47.1226V22.9613Z" fill="#2A477A"/>
<path d="M51.4126 21.6991H56.0083V22.8897H53.1313V23.775H55.8003V24.9118H53.1313V26.01H56.0916V27.2722H51.4126V21.6991Z" fill="#2A477A"/>
<path d="M59.3013 25.4285L60.9328 25.326C60.9682 25.5919 61.0404 25.7947 61.1487 25.9335C61.3256 26.1595 61.5778 26.272 61.9056 26.272C62.1505 26.272 62.339 26.2147 62.4716 26.0994C62.6043 25.9841 62.6705 25.8499 62.6705 25.6984C62.6705 25.5538 62.607 25.4248 62.4811 25.3108C62.3548 25.1967 62.0618 25.0891 61.6028 24.9878C60.8505 24.818 60.314 24.592 59.9938 24.3108C59.6709 24.0296 59.5093 23.671 59.5093 23.2349C59.5093 22.9486 59.5919 22.6781 59.7572 22.4237C59.9225 22.1691 60.171 21.969 60.5028 21.823C60.8349 21.6772 61.2899 21.6043 61.8675 21.6043C62.5771 21.6043 63.1175 21.737 63.4902 22.0014C63.8625 22.2661 64.0836 22.6875 64.1541 23.2654L62.5378 23.3606C62.4945 23.1102 62.4042 22.9275 62.2667 22.8138C62.1292 22.6994 61.9392 22.6424 61.697 22.6424C61.4976 22.6424 61.3475 22.6851 61.2463 22.7696C61.1454 22.8549 61.095 22.9577 61.095 23.08C61.095 23.1684 61.1365 23.2483 61.2198 23.3194C61.3006 23.3932 61.4927 23.4615 61.7952 23.5243C62.5448 23.6869 63.0818 23.8506 63.4063 24.0165C63.7305 24.1827 63.9662 24.3889 64.1141 24.6344C64.2614 24.8799 64.3352 25.1549 64.3352 25.459C64.3352 25.8164 64.2373 26.1461 64.0403 26.4474C63.8433 26.7493 63.5683 26.9774 63.2148 27.1338C62.8614 27.2897 62.4164 27.368 61.8782 27.368C60.9346 27.368 60.2808 27.1854 59.9176 26.82C59.5547 26.455 59.3491 25.9914 59.3013 25.4285Z" fill="#2A477A"/>
<path d="M64.9839 24.4895C64.9839 23.5798 65.2361 22.8714 65.7411 22.3643C66.2455 21.8577 66.9484 21.6043 67.8493 21.6043C68.7727 21.6043 69.4848 21.8532 69.9852 22.3512C70.4844 22.8491 70.7345 23.5466 70.7345 24.4435C70.7345 25.0952 70.6253 25.6295 70.4073 26.046C70.1889 26.4623 69.8733 26.788 69.4604 27.0192C69.0478 27.2512 68.5336 27.3674 67.9173 27.3674C67.2918 27.3674 66.774 27.2668 66.3638 27.0667C65.9537 26.8667 65.6213 26.5498 65.3666 26.1165C65.1111 25.6831 64.9839 25.1409 64.9839 24.4895ZM66.6984 24.4971C66.6984 25.0598 66.8027 25.4642 67.0109 25.7094C67.2189 25.9555 67.5025 26.0787 67.8606 26.0787C68.229 26.0787 68.5147 25.9579 68.7163 25.717C68.9182 25.4767 69.0191 25.0445 69.0191 24.4215C69.0191 23.8967 68.9136 23.513 68.7026 23.2709C68.4921 23.0294 68.2064 22.9083 67.845 22.9083C67.4992 22.9083 67.222 23.0309 67.0128 23.277C66.8033 23.5228 66.6984 23.9299 66.6984 24.4971Z" fill="#2A477A"/>
<path d="M75.3529 24.9912L76.8564 25.4471C76.7558 25.871 76.5963 26.2244 76.3794 26.508C76.1626 26.7917 75.8927 27.0063 75.5713 27.15C75.2493 27.2948 74.8403 27.3674 74.3429 27.3674C73.7397 27.3674 73.2466 27.2787 72.8645 27.1027C72.4818 26.9271 72.1524 26.6172 71.8746 26.1741C71.5974 25.7313 71.458 25.1641 71.458 24.4721C71.458 23.5506 71.7026 22.8415 72.1908 22.3469C72.6791 21.8513 73.3698 21.604 74.263 21.604C74.9623 21.604 75.5118 21.7461 75.9119 22.0297C76.3114 22.3136 76.6088 22.7497 76.8033 23.3374L75.2895 23.6756C75.2365 23.5063 75.1806 23.3819 75.1224 23.3032C75.0273 23.1712 74.9092 23.0699 74.7705 22.9992C74.632 22.9281 74.4765 22.8925 74.3051 22.8925C73.9163 22.8925 73.6186 23.0492 73.4116 23.363C73.2548 23.596 73.1765 23.9619 73.1765 24.4606C73.1765 25.0781 73.2701 25.5017 73.457 25.731C73.644 25.96 73.9065 26.0744 74.2444 26.0744C74.5719 26.0744 74.8205 25.9814 74.9879 25.7969C75.1559 25.6121 75.2773 25.3434 75.3529 24.9912Z" fill="#2A477A"/>
<path d="M79.4754 21.6991H77.7563V27.2719H79.4754V21.6991Z" fill="#2A477A"/>
<path d="M80.7021 21.6991H85.2979V22.8897H82.4212V23.775H85.0899V24.9118H82.4212V26.01H85.3805V27.2722H80.7021V21.6991Z" fill="#2A477A"/>
<path d="M86.3275 21.6991H88.8751C89.377 21.6991 89.7832 21.768 90.0919 21.9046C90.4008 22.041 90.657 22.2377 90.8588 22.4941C91.0604 22.75 91.2071 23.0476 91.2977 23.387C91.3889 23.7268 91.4337 24.0866 91.4337 24.4666C91.4337 25.0628 91.3663 25.5245 91.2312 25.8526C91.0958 26.1805 90.9082 26.4561 90.6692 26.6775C90.4292 26.8999 90.1718 27.0465 89.8967 27.1197C89.5213 27.2216 89.1806 27.2722 88.8748 27.2722H86.3271V21.6991H86.3275ZM88.0422 22.9613V26.0066H88.4625C88.8214 26.0066 89.0754 25.9664 89.2273 25.8868C89.3789 25.8063 89.4975 25.6675 89.5829 25.4687C89.6689 25.2692 89.7119 24.9472 89.7119 24.5008C89.7119 23.9104 89.6164 23.5066 89.4243 23.2882C89.2331 23.0702 88.9144 22.961 88.4707 22.961H88.0422V22.9613Z" fill="#2A477A"/>
<path d="M95.414 26.3522H93.4669L93.1964 27.2719H91.4453L93.5312 21.6991H95.4018L97.4875 27.2719H95.6916L95.414 26.3522ZM95.0582 25.1473L94.4452 23.1437L93.8392 25.1473H95.0582Z" fill="#2A477A"/>
<path d="M98.0555 21.6991H100.603C101.105 21.6991 101.512 21.768 101.82 21.9046C102.129 22.041 102.385 22.2377 102.587 22.4941C102.789 22.75 102.936 23.0476 103.026 23.387C103.117 23.7268 103.162 24.0866 103.162 24.4666C103.162 25.0628 103.094 25.5245 102.959 25.8526C102.824 26.1805 102.637 26.4561 102.397 26.6775C102.157 26.8999 101.899 27.0465 101.625 27.1197C101.25 27.2216 100.908 27.2722 100.603 27.2722H98.0552V21.6991H98.0555ZM99.7706 22.9613V26.0066H100.191C100.549 26.0066 100.804 25.9664 100.955 25.8868C101.107 25.8063 101.226 25.6675 101.311 25.4687C101.397 25.2692 101.44 24.9472 101.44 24.5008C101.44 23.9104 101.344 23.5066 101.152 23.2882C100.961 23.0702 100.642 22.961 100.198 22.961H99.7706V22.9613Z" fill="#2A477A"/>
<path d="M104.059 21.6991H108.655V22.8897H105.778V23.775H108.447V24.9118H105.778V26.01H108.738V27.2722H104.059V21.6991Z" fill="#2A477A"/>
<path d="M109.363 25.4285L110.995 25.326C111.03 25.5919 111.102 25.7947 111.211 25.9335C111.387 26.1595 111.64 26.272 111.967 26.272C112.212 26.272 112.4 26.2147 112.533 26.0994C112.666 25.9841 112.731 25.8499 112.731 25.6984C112.731 25.5538 112.668 25.4248 112.542 25.3108C112.417 25.1967 112.123 25.0891 111.664 24.9878C110.912 24.818 110.376 24.592 110.055 24.3108C109.732 24.0296 109.571 23.671 109.571 23.2349C109.571 22.9486 109.653 22.6781 109.818 22.4237C109.984 22.1691 110.232 21.969 110.564 21.823C110.896 21.6772 111.351 21.6043 111.929 21.6043C112.638 21.6043 113.179 21.737 113.551 22.0014C113.923 22.2661 114.145 22.6875 114.215 23.2654L112.599 23.3606C112.556 23.1102 112.466 22.9275 112.328 22.8138C112.191 22.6994 112.001 22.6424 111.758 22.6424C111.559 22.6424 111.409 22.6851 111.308 22.7696C111.207 22.8549 111.157 22.9577 111.157 23.08C111.157 23.1684 111.198 23.2483 111.281 23.3194C111.363 23.3932 111.555 23.4615 111.857 23.5243C112.607 23.6869 113.144 23.8506 113.468 24.0165C113.792 24.1827 114.028 24.3889 114.175 24.6344C114.323 24.8799 114.397 25.1549 114.397 25.459C114.397 25.8164 114.298 26.1461 114.102 26.4474C113.905 26.7493 113.63 26.9774 113.277 27.1338C112.923 27.2897 112.478 27.368 111.94 27.368C110.996 27.368 110.343 27.1854 109.979 26.82C109.616 26.455 109.41 25.9914 109.363 25.4285Z" fill="#2A477A"/>
</svg>
