<svg width="13" height="11" viewBox="0 0 13 11" fill="none" xmlns="http://www.w3.org/2000/svg">
<path d="M6.89048 7.77542C6.91838 7.85213 6.93232 7.9149 6.93232 7.96372C6.93581 8.00905 6.92361 8.04392 6.89571 8.06833C6.86781 8.09274 6.82074 8.10843 6.75448 8.1154C6.69172 8.12238 6.60628 8.12587 6.49818 8.12587C6.39008 8.12587 6.30291 8.12238 6.23665 8.1154C6.17389 8.11192 6.12507 8.10494 6.0902 8.09448C6.05881 8.08053 6.0344 8.0631 6.01697 8.04218C6.00302 8.02125 5.98907 7.9951 5.97512 7.96372L5.39453 6.31608H2.58046L2.02602 7.94279C2.01556 7.97418 2.00161 8.00208 1.98418 8.02648C1.96674 8.04741 1.94059 8.06659 1.90572 8.08402C1.87433 8.09797 1.82726 8.10843 1.76449 8.1154C1.70521 8.12238 1.62675 8.12587 1.52911 8.12587C1.42799 8.12587 1.3443 8.12064 1.27804 8.11017C1.21528 8.1032 1.16995 8.08751 1.14205 8.0631C1.11764 8.03869 1.10543 8.00382 1.10543 7.95849C1.10892 7.90967 1.12461 7.8469 1.15251 7.77019L3.42259 1.483C3.43654 1.44465 3.45397 1.41326 3.4749 1.38885C3.49931 1.36444 3.53243 1.34526 3.57428 1.33132C3.61961 1.31737 3.6754 1.30865 3.74166 1.30516C3.8114 1.29819 3.89858 1.2947 4.00319 1.2947C4.11477 1.2947 4.20718 1.29819 4.28041 1.30516C4.35364 1.30865 4.41292 1.31737 4.45825 1.33132C4.50358 1.34526 4.53845 1.36619 4.56286 1.39408C4.58727 1.41849 4.60645 1.44988 4.6204 1.48823L6.89048 7.77542ZM3.97703 2.22575H3.9718L2.80538 5.59949H5.15915L3.97703 2.22575Z" fill="#2A477A"/>
<path d="M11.2922 2.51343C11.2922 2.61456 11.2765 2.68778 11.2451 2.73312C11.2172 2.77845 11.1841 2.80111 11.1457 2.80111H10.0839V3.89431C10.0839 3.92918 10.0578 3.95708 10.0054 3.978C9.95663 3.99543 9.87468 4.00415 9.75961 4.00415C9.64453 4.00415 9.56085 3.99543 9.50854 3.978C9.45623 3.95708 9.43008 3.92918 9.43008 3.89431V2.80111H8.36827C8.32991 2.80111 8.29678 2.77845 8.26889 2.73312C8.24448 2.68778 8.23227 2.61456 8.23227 2.51343C8.23227 2.42277 8.24448 2.35303 8.26889 2.30421C8.2933 2.2519 8.32468 2.22575 8.36304 2.22575H9.43008V1.14824C9.43008 1.10989 9.45623 1.08025 9.50854 1.05932C9.56085 1.0384 9.64453 1.02794 9.75961 1.02794C9.87468 1.02794 9.95663 1.0384 10.0054 1.05932C10.0578 1.08025 10.0839 1.10989 10.0839 1.14824V2.22575H11.1457C11.1876 2.22575 11.2224 2.2519 11.2503 2.30421C11.2782 2.35303 11.2922 2.42277 11.2922 2.51343Z" fill="#2A477A"/>
</svg>
