<svg width="12" height="11" viewBox="0 0 12 11" fill="none" xmlns="http://www.w3.org/2000/svg">
<path d="M6.89048 8.76812C6.91838 8.84484 6.93232 8.9076 6.93232 8.95642C6.93581 9.00176 6.92361 9.03663 6.89571 9.06104C6.86781 9.08545 6.82074 9.10114 6.75448 9.10811C6.69172 9.11509 6.60628 9.11857 6.49818 9.11857C6.39008 9.11857 6.30291 9.11509 6.23665 9.10811C6.17389 9.10462 6.12507 9.09765 6.0902 9.08719C6.05881 9.07324 6.0344 9.05581 6.01697 9.03488C6.00302 9.01396 5.98907 8.98781 5.97512 8.95642L5.39453 7.30878H2.58046L2.02602 8.9355C2.01556 8.96688 2.00161 8.99478 1.98418 9.01919C1.96674 9.04011 1.94059 9.05929 1.90572 9.07673C1.87433 9.09068 1.82726 9.10114 1.76449 9.10811C1.70521 9.11509 1.62675 9.11857 1.52911 9.11857C1.42799 9.11857 1.3443 9.11334 1.27804 9.10288C1.21528 9.09591 1.16995 9.08021 1.14205 9.05581C1.11764 9.0314 1.10543 8.99652 1.10543 8.95119C1.10892 8.90237 1.12461 8.83961 1.15251 8.76289L3.42259 2.47571C3.43654 2.43735 3.45397 2.40597 3.4749 2.38156C3.49931 2.35715 3.53243 2.33797 3.57428 2.32402C3.61961 2.31007 3.6754 2.30136 3.74166 2.29787C3.8114 2.29089 3.89858 2.28741 4.00319 2.28741C4.11477 2.28741 4.20718 2.29089 4.28041 2.29787C4.35364 2.30136 4.41292 2.31007 4.45825 2.32402C4.50358 2.33797 4.53845 2.35889 4.56286 2.38679C4.58727 2.4112 4.60645 2.44258 4.6204 2.48094L6.89048 8.76812ZM3.97703 3.21845H3.9718L2.80538 6.59219H5.15915L3.97703 3.21845Z" fill="#2A477A"/>
<path d="M10.7273 4.55105C10.7273 4.68705 10.7116 4.7812 10.6802 4.8335C10.6488 4.88581 10.6035 4.91196 10.5442 4.91196H8.35781C8.29504 4.91196 8.24796 4.88581 8.21658 4.8335C8.1852 4.77771 8.16951 4.68356 8.16951 4.55105C8.16951 4.41854 8.1852 4.32614 8.21658 4.27383C8.24796 4.22152 8.29504 4.19537 8.35781 4.19537H10.5442C10.5721 4.19537 10.5965 4.2006 10.6174 4.21106C10.6418 4.22152 10.661 4.24245 10.675 4.27383C10.6924 4.30173 10.7046 4.33834 10.7116 4.38367C10.722 4.429 10.7273 4.4848 10.7273 4.55105Z" fill="#2A477A"/>
</svg>
