<svg width="15" height="16" viewBox="0 0 15 16" fill="none" xmlns="http://www.w3.org/2000/svg">
<path d="M7.41685 0.49292C3.35996 0.49292 0.0712891 3.78159 0.0712891 7.83848C0.0712891 11.8954 3.35996 15.184 7.41685 15.184C11.4737 15.184 14.7624 11.8954 14.7624 7.83848C14.7624 3.78159 11.4737 0.49292 7.41685 0.49292ZM10.4048 6.51016C10.4079 6.5729 10.4086 6.63564 10.4086 6.69686C10.4086 8.60976 8.95406 10.8142 6.29282 10.8142C5.50646 10.8155 4.73646 10.5897 4.07538 10.1638C4.18786 10.1776 4.3034 10.1829 4.42047 10.1829C5.0984 10.1829 5.72201 9.95262 6.21707 9.56392C5.91538 9.55799 5.62305 9.45809 5.38083 9.27814C5.13861 9.09819 4.95857 8.84716 4.8658 8.56003C5.08246 8.60122 5.30565 8.59259 5.51848 8.53477C5.19103 8.46856 4.89655 8.29113 4.68499 8.03257C4.47343 7.77401 4.35781 7.45024 4.35773 7.11616V7.09857C4.55284 7.20645 4.77627 7.27226 5.01347 7.27991C4.70649 7.07555 4.48917 6.76164 4.40597 6.40237C4.32276 6.0431 4.37996 5.66561 4.56585 5.34711C4.92927 5.79396 5.38248 6.15952 5.89614 6.4201C6.4098 6.68069 6.97246 6.8305 7.54769 6.85983C7.47456 6.54941 7.50603 6.22353 7.63722 5.93284C7.76841 5.64216 7.99196 5.40296 8.27312 5.25243C8.55428 5.1019 8.87729 5.04848 9.19194 5.10048C9.50659 5.15247 9.79525 5.30696 10.013 5.53993C10.3368 5.47587 10.6473 5.3571 10.9312 5.18872C10.8233 5.52396 10.5974 5.80864 10.2954 5.98984C10.5822 5.9553 10.8623 5.87819 11.1264 5.76106C10.9324 6.05174 10.688 6.30543 10.4048 6.51016Z" fill="#395185"/>
</svg>
