<svg width="16" height="16" viewBox="0 0 16 16" fill="none" xmlns="http://www.w3.org/2000/svg">
<path d="M9.51059 7.7107L7.79203 6.9088C7.64206 6.83918 7.51887 6.91722 7.51887 7.08326V8.59369C7.51887 8.75973 7.64206 8.83778 7.79203 8.76815L9.50982 7.96626C9.66056 7.89586 9.66056 7.78109 9.51059 7.7107ZM8.28403 0.49292C4.22714 0.49292 0.938477 3.78159 0.938477 7.83848C0.938477 11.8954 4.22714 15.184 8.28403 15.184C12.3409 15.184 15.6296 11.8954 15.6296 7.83848C15.6296 3.78159 12.3409 0.49292 8.28403 0.49292ZM8.28403 10.8226C4.52403 10.8226 4.45822 10.4836 4.45822 7.83848C4.45822 5.19331 4.52403 4.85434 8.28403 4.85434C12.044 4.85434 12.1098 5.19331 12.1098 7.83848C12.1098 10.4836 12.044 10.8226 8.28403 10.8226Z" fill="#395185"/>
</svg>
