<svg width="19" height="19" viewBox="0 0 19 19" fill="none" xmlns="http://www.w3.org/2000/svg">
<path d="M9.18283 2.29733C7.77183 2.29733 6.48482 2.84956 5.54568 3.80133C4.62951 4.73128 4.06465 6.02518 4.01873 7.5131L4.01758 7.53491V7.55788C4.08302 8.97691 4.76958 10.226 6.01181 11.5234L6.81777 14.8999L6.8258 14.9252C6.94061 15.2661 7.16105 15.5497 7.43888 15.7483C7.72705 15.955 8.07952 16.0721 8.45265 16.0721L10.0416 16.0675L10.0657 16.0652C10.4202 16.0353 10.7569 15.897 11.0301 15.6691C11.2953 15.4464 11.4962 15.141 11.5812 14.7805L12.4951 11.2788C13.6822 10.1376 14.3527 8.81733 14.3527 7.33285C14.3518 6.66793 14.2172 6.00998 13.9569 5.39816C13.6965 4.78633 13.3157 4.23313 12.8372 3.77148C11.8582 2.82188 10.5467 2.29282 9.18283 2.29733ZM6.36427 4.60729C6.73256 4.23497 7.17172 3.94023 7.65583 3.74047C8.13993 3.54072 8.65915 3.44 9.18283 3.44427C10.2477 3.43943 11.2721 3.85151 12.037 4.59236C12.4056 4.94716 12.6989 5.37257 12.8995 5.84321C13.1001 6.31386 13.2039 6.82009 13.2046 7.3317C13.2046 8.46946 12.6845 9.54292 11.5927 10.5521L11.4687 10.6669L10.9566 12.629H7.4561L7.05542 10.9482L6.94406 10.8334C5.74086 9.61181 5.22192 8.58771 5.16567 7.52802C5.20929 6.32483 5.66394 5.31795 6.36427 4.60843V4.60729ZM7.7305 13.7771H10.6581L10.4687 14.4969L10.4652 14.5119C10.4394 14.62 10.3789 14.7167 10.293 14.7874C10.2059 14.8603 10.0993 14.9061 9.98649 14.9194L8.4515 14.9252C8.32813 14.9256 8.20772 14.8874 8.10707 14.8161C8.02331 14.7571 7.95866 14.6749 7.92108 14.5796L7.72935 13.7771H7.7305Z" fill="white"/>
</svg>
