<svg width="18" height="19" viewBox="0 0 18 19" fill="none" xmlns="http://www.w3.org/2000/svg">
<g clip-path="url(#clip0_326_3864)">
<path fill-rule="evenodd" clip-rule="evenodd" d="M14.7393 12.9103C14.7393 13.3349 14.657 13.7531 14.4922 14.1459C14.3275 14.5388 14.093 14.8936 13.7952 15.1914C13.4974 15.4893 13.1425 15.73 12.7497 15.8884C12.3568 16.0532 11.9386 16.1356 11.5141 16.1356C11.0895 16.1356 10.6713 16.0532 10.2785 15.8884C9.8856 15.7237 9.53076 15.4893 9.23295 15.1914C8.93513 14.8936 8.69435 14.5388 8.53594 14.1459C8.37119 13.7531 8.28881 13.3349 8.28881 12.9103C8.28881 12.0549 8.63098 11.2311 9.23295 10.6292C9.83491 10.0272 10.6587 9.68504 11.5141 9.68504C12.3695 9.68504 13.1932 10.0272 13.7952 10.6292C14.3972 11.2311 14.7393 12.0549 14.7393 12.9103ZM14.0994 16.1482C13.2693 16.8072 12.2238 17.1304 11.1656 17.0417C10.1074 16.953 9.12523 16.4651 8.42188 15.673C7.71219 14.881 7.33834 13.8544 7.37002 12.7899C7.40171 11.7317 7.83259 10.7242 8.58029 9.97019C9.32799 9.22248 10.3355 8.78527 11.4 8.75992C12.4582 8.72824 13.4911 9.10843 14.2831 9.81177C15.0752 10.5215 15.5631 11.5036 15.6518 12.5555C15.7405 13.6137 15.4237 14.6592 14.7583 15.4893L17.3753 18.1062C17.4197 18.1506 17.4513 18.2013 17.4767 18.2583C17.502 18.3153 17.5147 18.3723 17.5147 18.4357C17.5147 18.4991 17.502 18.5561 17.4767 18.6131C17.4513 18.6702 17.4197 18.7209 17.3753 18.7652C17.331 18.8096 17.2803 18.8412 17.2232 18.8666C17.1662 18.8919 17.1092 18.9046 17.0458 18.9046C16.9824 18.9046 16.9254 18.8919 16.8684 18.8666C16.8114 18.8412 16.7607 18.8096 16.7163 18.7652L14.0994 16.1482Z" fill="white"/>
<path d="M7.28775 15.6728H2.4657C2.11719 15.6728 1.77502 15.5334 1.5279 15.28C1.28078 15.0265 1.13504 14.6907 1.13504 14.3422V2.8098C1.13504 2.46129 1.27444 2.11913 1.5279 1.872C1.77502 1.61854 2.11719 1.47914 2.4657 1.47914H6.45768C6.48302 1.68191 6.64143 1.86567 6.83786 1.90369C7.03429 1.9417 7.2434 1.87834 7.34478 1.70092L11.5585 5.91467C11.3748 6.02239 11.2797 6.23783 11.3368 6.4406C11.3875 6.6497 11.5712 6.79544 11.7803 6.80178V7.78393C12.1098 7.81561 12.4266 7.88531 12.7308 7.97402V6.80178C12.7308 6.54832 12.6357 6.32654 12.4773 6.15546C12.5597 5.8323 12.471 5.48379 12.2302 5.243L8.01645 1.02925C7.77566 0.788467 7.42716 0.693419 7.104 0.78213C6.93291 0.623718 6.71113 0.528671 6.45768 0.528671H2.4657C1.8574 0.528671 1.28078 0.763121 0.8499 1.194C0.41902 1.62488 0.18457 2.2015 0.18457 2.8098V14.3422C0.18457 14.9441 0.425356 15.5334 0.8499 15.958C1.27444 16.3825 1.86373 16.6233 2.4657 16.6233H8.20654C7.85804 16.3508 7.55389 16.0277 7.28775 15.6728Z" fill="white"/>
<path d="M8.94774 5.85133H2.77602C2.51622 5.85133 2.30078 6.06677 2.30078 6.32657C2.30078 6.58636 2.50988 6.8018 2.77602 6.8018H8.94774C9.20753 6.8018 9.42297 6.58636 9.42297 6.32657C9.42297 6.06677 9.20753 5.85133 8.94774 5.85133Z" fill="white"/>
<path d="M8.94774 8.10091H2.77602C2.51622 8.10091 2.30078 8.31635 2.30078 8.57614C2.30078 8.83594 2.51622 9.05138 2.77602 9.05138H7.94658C8.32676 8.70921 8.75764 8.41773 9.23288 8.20229C9.15051 8.14526 9.05546 8.10091 8.94774 8.10091Z" fill="white"/>
<path d="M2.77602 10.3503C2.51622 10.3503 2.30078 10.5658 2.30078 10.8255C2.30078 11.0853 2.50988 11.3008 2.77602 11.3008H6.52087C6.62225 10.9713 6.75532 10.6481 6.91373 10.3503H2.77602Z" fill="white"/>
<path d="M6.3181 12.5935H2.77602C2.51622 12.5935 2.30078 12.8089 2.30078 13.0687C2.30078 13.3285 2.51622 13.5439 2.77602 13.5439H6.3878C6.34345 13.2778 6.31177 13.0053 6.31177 12.7265C6.31177 12.6822 6.3181 12.6378 6.3181 12.5935Z" fill="white"/>
</g>
<defs>
<clipPath id="clip0_326_3864">
<rect width="17.3176" height="18.3694" fill="white" transform="translate(0.18457 0.528671)"/>
</clipPath>
</defs>
</svg>
