<svg width="19" height="19" viewBox="0 0 19 19" fill="none" xmlns="http://www.w3.org/2000/svg">
<path d="M9.87 17.0004L9 16.5004L11 13.0004H14C14.2652 13.0004 14.5196 12.895 14.7071 12.7075C14.8946 12.5199 15 12.2656 15 12.0004V6.00035C15 5.73513 14.8946 5.48078 14.7071 5.29324C14.5196 5.10571 14.2652 5.00035 14 5.00035H4C3.73478 5.00035 3.48043 5.10571 3.29289 5.29324C3.10536 5.48078 3 5.73513 3 6.00035V12.0004C3 12.2656 3.10536 12.5199 3.29289 12.7075C3.48043 12.895 3.73478 13.0004 4 13.0004H8.5V14.0004H4C3.46957 14.0004 2.96086 13.7896 2.58579 13.4146C2.21071 13.0395 2 12.5308 2 12.0004V6.00035C2 5.46992 2.21071 4.96121 2.58579 4.58614C2.96086 4.21106 3.46957 4.00035 4 4.00035H14C14.5304 4.00035 15.0391 4.21106 15.4142 4.58614C15.7893 4.96121 16 5.46992 16 6.00035V12.0004C16 12.5308 15.7893 13.0395 15.4142 13.4146C15.0391 13.7896 14.5304 14.0004 14 14.0004H11.58L9.87 17.0004Z" fill="white"/>
<path d="M5 7.00035H13V8.00035H5V7.00035Z" fill="white"/>
<path d="M5 10.0004H10V11.0004H5V10.0004Z" fill="white"/>
</svg>
