<svg width="19" height="19" viewBox="0 0 19 19" fill="none" xmlns="http://www.w3.org/2000/svg">
<g clip-path="url(#clip0_326_5272)">
<path fill-rule="evenodd" clip-rule="evenodd" d="M2.67876 6.12306C2.67891 5.3974 2.86664 4.6841 3.22373 4.05239C3.58082 3.42067 4.09515 2.89199 4.7168 2.51765C5.33845 2.14331 6.04631 1.93602 6.77169 1.9159C7.49707 1.89577 8.21533 2.0635 8.85677 2.40281C9.49822 2.74211 10.0411 3.24146 10.4326 3.85241C10.8242 4.46336 11.0512 5.16515 11.0916 5.88969C11.1319 6.61422 10.9843 7.33689 10.6631 7.98756C10.3418 8.63824 9.85784 9.19482 9.25807 9.6033C10.5497 10.077 11.67 10.9264 12.4747 12.0422C13.2795 13.158 13.732 14.4891 13.7739 15.8642C13.7762 15.9396 13.7635 16.0147 13.7368 16.0852C13.71 16.1557 13.6696 16.2203 13.6179 16.2752C13.5135 16.3861 13.3693 16.4509 13.2171 16.4555C13.0648 16.46 12.917 16.4039 12.8061 16.2995C12.6952 16.1951 12.6304 16.0509 12.6258 15.8987C12.5802 14.4073 11.9557 12.9922 10.8847 11.9534C9.8136 10.9145 8.38013 10.3336 6.88804 10.3336C5.39594 10.3336 3.96247 10.9145 2.89141 11.9534C1.82034 12.9922 1.19585 14.4073 1.15027 15.8987C1.14261 16.0485 1.07655 16.1895 0.966238 16.2912C0.855931 16.393 0.710152 16.4475 0.560132 16.4431C0.410111 16.4387 0.267781 16.3758 0.163634 16.2677C0.0594861 16.1596 0.00180463 16.0151 0.00294632 15.865C0.0446995 14.4897 0.497089 13.1585 1.30188 12.0425C2.10668 10.9266 3.22704 10.0771 4.51876 9.6033C3.95138 9.21736 3.48707 8.69843 3.16634 8.0918C2.84562 7.48517 2.67822 6.80926 2.67876 6.12306ZM6.88842 3.06149C6.07644 3.06149 5.29772 3.38405 4.72356 3.9582C4.14941 4.53236 3.82685 5.31108 3.82685 6.12306C3.82685 6.93504 4.14941 7.71376 4.72356 8.28792C5.29772 8.86207 6.07644 9.18463 6.88842 9.18463C7.7004 9.18463 8.47912 8.86207 9.05328 8.28792C9.62743 7.71376 9.94999 6.93504 9.94999 6.12306C9.94999 5.31108 9.62743 4.53236 9.05328 3.9582C8.47912 3.38405 7.7004 3.06149 6.88842 3.06149Z" fill="white"/>
<path d="M13.234 6.12302C13.1207 6.12302 13.0105 6.13068 12.9018 6.14598C12.8259 6.15957 12.7481 6.15774 12.6729 6.14059C12.5977 6.12344 12.5268 6.09133 12.4643 6.04617C12.4019 6.00101 12.3491 5.94373 12.3093 5.87775C12.2694 5.81176 12.2432 5.73842 12.2323 5.66211C12.2214 5.5858 12.226 5.50807 12.2458 5.43356C12.2656 5.35906 12.3002 5.2893 12.3475 5.22845C12.3949 5.16761 12.454 5.11692 12.5213 5.07941C12.5887 5.0419 12.6629 5.01835 12.7395 5.01014C13.5008 4.90008 14.277 5.04627 14.946 5.42569C15.6151 5.80512 16.139 6.39624 16.4353 7.10604C16.7316 7.81583 16.7835 8.604 16.5827 9.3465C16.382 10.089 15.9401 10.7437 15.3266 11.2075C16.2285 11.6114 16.9943 12.2676 17.5316 13.097C18.0688 13.9264 18.3546 14.8936 18.3544 15.8818C18.3544 16.034 18.294 16.18 18.1863 16.2877C18.0787 16.3953 17.9326 16.4558 17.7804 16.4558C17.6282 16.4558 17.4821 16.3953 17.3745 16.2877C17.2668 16.18 17.2064 16.034 17.2064 15.8818C17.2063 15.0277 16.9311 14.1964 16.4216 13.511C15.912 12.8255 15.1953 12.3225 14.3775 12.0762L13.9687 11.9538V10.671L14.2826 10.511C14.7477 10.2754 15.1199 9.88987 15.339 9.41669C15.5582 8.94352 15.6114 8.41031 15.4902 7.90314C15.369 7.39598 15.0804 6.94445 14.6711 6.62147C14.2617 6.29848 13.7554 6.12288 13.234 6.12302Z" fill="white"/>
</g>
<defs>
<clipPath id="clip0_326_5272">
<rect width="18.3694" height="18.3694" fill="white"/>
</clipPath>
</defs>
</svg>
