<svg width="20" height="20" viewBox="0 0 20 20" fill="none" xmlns="http://www.w3.org/2000/svg">
<path d="M10.7877 14.1553H15.3066C16.1295 14.1553 16.7762 13.5005 16.7762 12.717V6.55406C16.7762 5.77061 16.1295 5.11574 15.3066 5.11574H5.38711C4.56416 5.11574 3.91755 5.77061 3.91755 6.55406V12.717C3.91755 13.5005 4.56416 14.1553 5.38711 14.1553H6.85666V17.0559H6.85942L6.86125 17.0549L10.7886 14.1553H10.7877ZM7.40774 17.7934C7.21222 17.9375 6.96793 17.9991 6.72744 17.9649C6.48695 17.9308 6.2695 17.8035 6.12189 17.6106C6.00355 17.4547 5.93937 17.2644 5.93911 17.0687V15.0738H5.38803C4.0691 15.0738 3 14.0185 3 12.717V6.55406C2.99908 5.25259 4.06818 4.19727 5.38711 4.19727H15.3066C16.6255 4.19727 17.6946 5.25259 17.6946 6.55406V12.717C17.6946 14.0194 16.6255 15.0738 15.3066 15.0738H11.0908L7.40683 17.7934H7.40774Z" fill="white" stroke="white" stroke-width="0.13121"/>
</svg>
