<svg width="62" height="76" viewBox="0 0 62 76" fill="none" xmlns="http://www.w3.org/2000/svg">
<path d="M15.7004 75.5256C14.2355 75.2029 12.8803 74.6737 11.7896 73.596C10.5635 72.3828 9.88592 70.905 9.74394 69.2077C9.2793 63.645 8.85338 58.0757 8.40165 52.513C7.89184 46.221 7.36912 39.9354 6.8593 33.6434C6.59472 30.3522 6.33658 27.061 6.072 23.7698C6.03973 23.3633 5.9881 22.9567 5.94293 22.4792C5.40085 22.4792 4.89749 22.4921 4.39413 22.4792C1.65146 22.3953 -0.0134982 20.1366 0.773808 17.5294C1.26426 15.9032 1.80634 14.2963 2.38714 12.7024C3.13573 10.6308 4.73616 9.54022 6.9561 9.53377C11.2088 9.52086 15.4551 9.53377 19.7079 9.53377C19.9725 9.53377 20.2371 9.53377 20.6049 9.53377C20.6049 8.15921 20.5597 6.82982 20.6243 5.50689C20.6565 4.77121 20.7275 3.97745 21.0179 3.31921C21.6955 1.78977 22.9797 0.976648 24.6511 0.957288C28.9039 0.918568 33.1502 0.912114 37.4029 0.957288C39.7842 0.983101 41.404 2.76422 41.4556 5.29393C41.4814 6.67494 41.4621 8.05595 41.4621 9.53377C41.7718 9.53377 42.03 9.53377 42.2881 9.53377C46.4634 9.53377 50.6452 9.53377 54.8205 9.53377C57.4276 9.53377 58.9571 10.6244 59.7895 13.0702C60.28 14.5157 60.7769 15.9613 61.2351 17.4133C62.0805 20.1043 60.4413 22.3953 57.6277 22.4856C57.3889 22.4921 57.1501 22.4856 56.8597 22.4856C56.6984 24.4281 56.5371 26.306 56.3822 28.1904C55.9046 34.0177 55.4335 39.8515 54.9624 45.6789C54.5559 50.7577 54.1558 55.8429 53.7363 60.9217C53.4846 63.9676 53.3039 67.0265 52.8909 70.0531C52.5102 72.8281 50.2128 74.9448 47.4637 75.4158C47.3217 75.4417 47.1862 75.4933 47.0507 75.532C36.5834 75.5256 26.1419 75.5256 15.7004 75.5256ZM52.4392 22.5179C38.358 22.5179 24.3866 22.5179 10.4022 22.5179C10.3893 22.6276 10.3635 22.6986 10.3699 22.7631C10.9443 29.9005 11.5122 37.0314 12.0865 44.1688C12.7447 52.2484 13.4094 60.3215 14.0677 68.4011C14.229 70.3952 15.0292 71.1566 17.0362 71.1566C26.6 71.1566 36.1703 71.1566 45.7342 71.1566C45.9794 71.1566 46.2182 71.1631 46.4634 71.1437C47.5927 71.0534 48.4639 70.2596 48.6446 69.1432C48.7156 68.7108 48.7414 68.2785 48.7802 67.8396C49.0447 64.5742 49.3029 61.3089 49.5675 58.0435C49.9869 52.8937 50.4064 47.744 50.8194 42.5877C51.1872 38.064 51.5551 33.5402 51.9229 29.0228C52.0972 26.8803 52.265 24.7249 52.4392 22.5179ZM5.18789 18.0586C22.4376 18.0586 39.5971 18.0586 56.8275 18.0586C56.4532 16.9164 56.066 15.8516 55.7562 14.761C55.5691 14.0963 55.2658 13.8704 54.543 13.8704C38.8549 13.8962 23.1669 13.8898 7.47882 13.8898C7.31104 13.8898 7.11744 13.8446 6.97546 13.9027C6.78186 13.9866 6.52373 14.1156 6.4592 14.2834C6.02037 15.516 5.62672 16.755 5.18789 18.0586ZM37.0351 5.3391C32.9888 5.3391 29.0136 5.3391 25.0254 5.3391C25.0254 6.74593 25.0254 8.10758 25.0254 9.48214C29.0523 9.48214 33.0276 9.48214 37.0351 9.48214C37.0351 8.08822 37.0351 6.74593 37.0351 5.3391Z" fill="#3366CC"/>
</svg>
